<svg xmlns="http://www.w3.org/2000/svg" xmlns:android="http://schemas.android.com/apk/res/android" width="40dp" height="42.39dp" viewportWidth="40" viewportHeight="42.39">
	<path d="M0,0.5V42.39H19.1A21.2,21.2 0,0 0,40 21.19C40,9.53 28.2,0.07 16.55,0Z" fill="#cbcbcb"/>
	<path d="M28.8999,21.5756L28.9098,21.5747A1.49,1.49 129.65,0 1,30.5323 22.9193L31.4488,32.7064A1.49,1.49 129.65,0 1,30.1042 34.3289L30.0943,34.3298A1.49,1.49 129.65,0 1,28.4718 32.9852L27.5553,23.198A1.49,1.49 129.65,0 1,28.8999 21.5756z" stroke-width="0.75" fill="#cbcbcb" stroke="#000"/>
	<path d="M8.77,34.42L8.77,34.41A1.49,1.49 0,0 1,10.26 32.92L20.09,32.92A1.49,1.49 0,0 1,21.58 34.41L21.58,34.42A1.49,1.49 0,0 1,20.09 35.91L10.26,35.91A1.49,1.49 0,0 1,8.77 34.42z" stroke-width="0.75" fill="#cbcbcb" stroke="#000"/>
	<path d="M3.7443,24.5497L3.735,24.546A1.49,1.49 66.73,0 1,2.9026 22.6102L6.542,13.4788A1.49,1.49 66.73,0 1,8.4777 12.6463L8.487,12.65A1.49,1.49 66.73,0 1,9.3195 14.5858L5.6801,23.7172A1.49,1.49 66.73,0 1,3.7443 24.5497z" stroke-width="0.75" fill="#cbcbcb" stroke="#000"/>
	<path d="M28.4449,11.9687L28.4517,11.976A1.49,1.49 92.4,0 1,28.3634 14.0813L21.1276,20.735A1.49,1.49 92.4,0 1,19.0223 20.6468L19.0155,20.6394A1.49,1.49 92.4,0 1,19.1037 18.5341L26.3396,11.8804A1.49,1.49 92.4,0 1,28.4449 11.9687z" stroke-width="0.75" fill="#cbcbcb" stroke="#000"/>
	<path d="M23.199,9.7879L23.1975,9.7978A1.49,1.49 53.59,0 1,21.5017 11.0485L11.7819,9.5803A1.49,1.49 53.59,0 1,10.5312 7.8845L10.5327,7.8746A1.49,1.49 53.59,0 1,12.2285 6.6238L21.9483,8.0921A1.49,1.49 53.59,0 1,23.199 9.7879z" stroke-width="0.75" fill="#cbcbcb" stroke="#000"/>
	<path d="M11.0748,20.8666L11.0804,20.8584A1.49,1.49 79.14,0 1,13.1499 20.4614L21.2859,25.9781A1.49,1.49 79.14,0 1,21.6829 28.0476L21.6773,28.0558A1.49,1.49 79.14,0 1,19.6078 28.4528L11.4718,22.9361A1.49,1.49 79.14,0 1,11.0748 20.8666z" stroke-width="0.75" fill="#cbcbcb" stroke="#000"/>
</svg>
